
<svg xmlns="http://www.w3.org/2000/svg" xmlns:xlink="http://www.w3.org/1999/xlink" width="16pt" height="16pt" viewBox="0 0 16 16" version="1.1">
<g>
<path style=" stroke:none;fill-rule:nonzero;fill:rgb(100%,100%,100%);fill-opacity:1;" d="M 3.582031 14 L 0.265625 14 L 0.265625 4.652344 L 3.582031 4.652344 Z M 1.921875 3.378906 C 0.859375 3.378906 0 2.609375 0 1.679688 C 0 0.753906 0.859375 0 1.921875 0 C 2.980469 0 3.84375 0.753906 3.84375 1.679688 C 3.84375 2.609375 2.980469 3.378906 1.921875 3.378906 Z M 15.996094 14 L 12.6875 14 L 12.6875 9.449219 C 12.6875 8.367188 12.660156 6.976562 10.960938 6.976562 C 9.238281 6.976562 8.972656 8.152344 8.972656 9.371094 L 8.972656 14 L 5.660156 14 L 5.660156 4.652344 L 8.839844 4.652344 L 8.839844 5.929688 L 8.886719 5.929688 C 9.328125 5.195312 10.410156 4.417969 12.027344 4.417969 C 15.382812 4.417969 16 6.351562 16 8.867188 L 16 14 Z M 15.996094 14 "/>
</g>
</svg>
